<?xml version="1.0" encoding="UTF-8" standalone="no"?>
<svg
   viewBox="0 0 465.4 232.3"
   version="1.1"
   id="svg50"
   xmlns="http://www.w3.org/2000/svg"
   xmlns:svg="http://www.w3.org/2000/svg">
  <defs
     id="defs24">
    <clipPath
       id="a"
       clipPathUnits="userSpaceOnUse">
      <path
         d="M567 427.6h271v498.6H567Z"
         clip-rule="evenodd"
         id="path9" />
    </clipPath>
    <clipPath
       id="b"
       clipPathUnits="userSpaceOnUse">
      <path
         d="M519.7 646h270.8v498.2H519.7Z"
         clip-rule="evenodd"
         id="path12" />
    </clipPath>
    <clipPath
       id="c"
       clipPathUnits="userSpaceOnUse">
      <path
         d="M519.7 418H840v726.6H519.7z"
         clip-rule="evenodd"
         id="path15" />
    </clipPath>
    <clipPath
       id="d"
       clipPathUnits="userSpaceOnUse">
      <path
         d="M0 0h1562.5v1562.5H0Z"
         clip-rule="evenodd"
         id="path18" />
    </clipPath>
    <clipPath
       id="e"
       clipPathUnits="userSpaceOnUse">
      <path
         d="M1143.2 468.3h328.1v262.5h-328z"
         clip-rule="evenodd"
         id="path21" />
    </clipPath>
  </defs>
  <g
     clip-path="url(#a)"
     transform="matrix(.32 0 0 .32 -22.8 -133.8)"
     id="g28"
     style="fill:#ffffff">
    <path
       fill="#0292b7"
       d="M585.2 428.2c-14 104.6 92 165 157.9 224.3 75.4 68 122.4 173.1 76.8 273.3 1-95.3-37.8-173.7-106.3-235.1-66.6-59.8-193-157-128.4-262.5"
       id="path26"
       style="fill:#ffffff" />
  </g>
  <g
     clip-path="url(#b)"
     transform="matrix(.32 0 0 .32 -22.8 -133.8)"
     id="g32"
     style="fill:#ffffff">
    <path
       fill="#0292b7"
       d="M537.5 646.6c-14 104.6 92 165 157.9 224.3 75.4 68 122.4 173.1 76.8 273.3 1-95.3-37.8-173.7-106.3-235.1-66.6-59.8-193-157-128.4-262.5"
       id="path30"
       style="fill:#ffffff" />
  </g>
  <g
     clip-path="url(#c)"
     transform="matrix(.32 0 0 .32 -22.8 -133.8)"
     id="g36"
     style="fill:#ffffff">
    <path
       fill="#0292b7"
       d="m600 677-69-11.7v23.4zm155.7 218.4 69-11.7v23.4zM614.8 700.3l136.6-11.6V712zm68.2 98.1 136.9-11.6V810zm7.5-32.8-134.3-11.7v23.4zm70 83.1-106-11.7v23.4zm38.1 11.7a17.6 17.6 0 1 1-35.2 0 17.6 17.6 0 0 1 35.2 0m-136.1-67.5a17.2 17.2 0 1 1-34.5 0 17.2 17.2 0 0 1 34.5 0m34.5-65.7a14 14 0 1 1-28 0 14 14 0 0 1 28 0m-92.4-106.7a26.1 26.1 0 1 1-52.3 0 26.1 26.1 0 0 1 52.3 0m44.9-176.1a26.1 26.1 0 1 1-52.3 0 26.1 26.1 0 0 1 52.3 0m4.6 519a26.1 26.1 0 1 1-52.2 0 26.1 26.1 0 0 1 52.2 0m87.3 74.3a17 17 0 1 1-33.9 0 17 17 0 0 1 34 0M696.6 491a13.7 13.7 0 1 1-27.3 0 13.7 13.7 0 0 1 27.3 0"
       id="path34"
       style="fill:#ffffff" />
  </g>
  <g
     clip-path="url(#d)"
     transform="matrix(.32 0 0 .32 -22.8 -133.8)"
     id="g44"
     style="fill:#ffffff">
    <g
       font-family="OpenSans"
       font-size="38.7"
       font-weight="800"
       id="g42"
       style="fill:#ffffff">
      <path
         d="M253.8 822.2q0 15.4-6.3 27.6-6.2 12.2-17 20.2-12.7 9.5-27.8 13.5-15 4-38.3 4h-93V674.2H154q25.8 0 37.7 1.7 12 1.7 23.8 7.6 12.1 6.2 18 16.6 6 10.3 6 23.7 0 15.4-8.1 27.3-8.2 11.8-23.1 18.4v1.1q20.9 4.2 33 17.2 12.4 13 12.4 34.4zm-70.5-87.7q0-5.3-2.7-10.6-2.6-5.3-9.3-7.9-6-2.3-15-2.4-9-.3-25.1-.3H126v45.1h8.6q13 0 22.2-.4t14.5-2.9q7.4-3.3 9.7-8.4 2.3-5.3 2.3-12.2zm13.5 86.8q0-10.2-4-15.6-3.9-5.6-13.3-8.3-6.5-1.9-17.8-2-11.3-.2-23.6-.2h-12v53.2h4q23.1 0 33.2-.2 10-.1 18.4-3.7 8.6-3.6 11.8-9.4 3.3-6 3.3-13.8zm120.9 66.2H266V726.6h51.6zm1.4-183.8h-54.4v-39H319zM526 807.1q0 39.7-23.3 62.6-23 22.8-64.9 22.8-41.8 0-65-22.8-23-22.9-23-62.6 0-40 23.1-62.7 23.4-22.8 65-22.8 42 0 65 23 23 22.8 23 62.5zm-63.5 39.1q5-6.1 7.4-14.7 2.6-8.8 2.6-24 0-14.3-2.6-23.9-2.6-9.6-7.2-15.3-4.5-5.9-11-8.3-6.4-2.4-13.9-2.4-7.4 0-13.3 2-5.7 2-11 8-4.8 5.6-7.6 15.3-2.7 9.8-2.7 24.5 0 13.2 2.4 23 2.4 9.5 7.2 15.4 4.5 5.6 10.8 8.2 6.5 2.5 14.7 2.5 7 0 13.3-2.3 6.4-2.4 10.9-8z"
         aria-label="Bio"
         style="-inkscape-font-specification:OpenSans-ExtraBold;fill:#ffffff"
         id="path38" />
      <path
         fill="#0292b7"
         d="M952.6 891.6q-23.8 0-44-7-20-7-34.5-20.9-14.5-13.9-22.5-34.7-7.9-20.7-7.9-48 0-25.3 7.6-46 7.6-20.5 22-35.3 14-14.2 34.4-22 20.7-7.6 45-7.6 13.5 0 24.2 1.5 10.9 1.5 20 3.9 9.7 2.7 17.4 6.2 7.9 3.2 13.7 6.1v51.7h-6.3q-4-3.4-10.1-8.1-6-4.8-13.8-9.4-7.9-4.5-17-7.7-9.2-3.1-19.6-3.1-11.6 0-22.1 3.7-10.5 3.6-19.3 12-8.5 8.2-13.8 21.6-5.1 13.5-5.1 32.7 0 20 5.5 33.5 5.8 13.5 14.4 21.2 8.7 7.9 19.4 11.3 10.8 3.3 21.2 3.3 10 0 19.8-3 9.9-3 18.2-8.1 7-4.2 13-9l10-8h5.6v50.9l-15.3 6.7q-7.3 3.2-15.3 5.5-10.5 3-19.6 4.6-9.2 1.5-25.2 1.5zm252.6-4.1h-51.8v-79.8q0-9.7-1-19.3-1-9.8-3.5-14.4-2.8-5.3-8.4-7.7-5.5-2.4-15.4-2.4-7 0-14.3 2.3-7.1 2.3-15.6 7.3v114h-51.6V664.6h51.6v79.8q13.8-10.8 26.4-16.5 12.7-5.7 28.2-5.7 26 0 40.7 15.2 14.7 15.2 14.7 45.4zm193.4-70.9h-118q1 18.9 14.3 29 13.3 10 39 10 16.4 0 31.7-6 15.3-5.8 24.2-12.5h5.7v41.4q-17.4 7-32.9 10.1-15.5 3.2-34.2 3.2-48.4 0-74.2-21.8-25.8-21.8-25.8-62 0-39.8 24.3-63 24.5-23.4 67-23.4 39.3 0 59 20 19.9 19.7 19.9 57zm-51.3-30.2q-.5-16.2-8-24.4-7.6-8.2-23.7-8.2-14.9 0-24.5 7.8-9.6 7.7-10.7 24.8zm178.4-84h-3.8q-3.5-1-9-2.3-5.5-1.3-11.8-1.3-15.2 0-20.6 5.5-5.3 5.4-5.3 21v1.3h39.8v35h-38.1v125.9h-51.6v-126h-22v-34.9h22v-4.4q0-29.5 15.6-44.3 15.8-14.7 47.6-14.7 11.4 0 20.8.8 9.3.8 16.4 2z"
         aria-label="Chef"
         style="-inkscape-font-specification:OpenSans-ExtraBold;fill:#ffffff"
         id="path40" />
    </g>
  </g>
  <g
     clip-path="url(#e)"
     transform="matrix(.32 0 0 .32 -22.8 -133.8)"
     id="g48"
     style="fill:#ffffff">
    <path
       d="M1450.6 574.5a234.7 234.7 0 0 0-61.9-70.7c-24.7-19-56.8-35.4-89.4-31a72.6 72.6 0 0 0-44.3 22c-12.5 12.7-16.3 31.6-21.5 49-7.4 5.3-16.1 9-24.5 12a746 746 0 0 1-4.9 1.8c-12.2 4.5-24.9 9.1-35.5 17.7a65 65 0 0 0-23.1 56 64.8 64.8 0 0 0 34.4 49.9 63 63 0 0 0 44.4 4.5l8.6 45 6.5-1.7a280.6 280.6 0 0 1 139.3 0l6.6 1.7 7.6-39.7c20.1.8 40.4-7.5 53.9-22.8 24.6-27.6 21.4-63.6 3.8-93.8zM1375.3 715a292.8 292.8 0 0 0-132.4 0l-9.3-48.5.4.1a54.9 54.9 0 0 0 49.4-16c16.2-1.3 33.8-1.4 52.3 0 14.9 7 30.8 14.1 47.8 13.5h1.6l-9.7 50.9zm72.7-80.2a55.9 55.9 0 0 1-52.6 43l3.2-16.2a51.7 51.7 0 0 0 34-32.9c-17 19.4-42.6 27.9-66.4 18.9-12-4-23.7-11-35.7-16.1a78.5 78.5 0 0 0-25.6-5.6 139.4 139.4 0 0 1 61.2-40.1 108 108 0 0 0-72 31.8c-6.5 6.3-12.3 12.6-18.2 18.2-23.9 25-58.7 22.2-77.7-8.8.5 14 9.3 26.7 21.4 34l2.3 12.1a51.3 51.3 0 0 1-36.2-3.4A51.7 51.7 0 0 1 1158 630a52 52 0 0 1 18.5-44.8c9-7.2 20.1-11.3 31.9-15.6l5-1.8c4-1.5 8.4-3.3 12.8-5.3a41.7 41.7 0 0 1-23.2 21.3c16.8 1.5 30.4-13 37.4-27 10.7-21.5 12.2-48.6 34.8-61.2 34.4-20.3 75.1-2.5 104 20.5 31.2 24.3 78.5 77 68.7 118.8z"
       id="path46"
       style="fill:#ffffff" />
  </g>
</svg>
